<?xml version="1.0" encoding="utf-8"?>
<!-- Generator: Adobe Illustrator 22.1.0, SVG Export Plug-In . SVG Version: 6.00 Build 0)  -->
<svg version="1.1" id="Layer_1" xmlns="http://www.w3.org/2000/svg" xmlns:xlink="http://www.w3.org/1999/xlink" x="0px" y="0px"
	 viewBox="0 0 512 512" style="enable-background:new 0 0 512 512;" xml:space="preserve">
<style type="text/css">
	.st0{fill:#FFFFFF;}
	.st1{fill:#F26B6C;}
</style>
<circle class="st0" cx="262.5" cy="246.4" r="212.1"/>
<path class="st0" d="M104.7,133c-15.9-13.2-26.2-33.7-26.2-56.7C78.5,36.4,109.4,4,147.4,4c28.3,0,52.6,17.9,63.2,43.5L104.7,133z"
	/>
<path class="st0" d="M419.4,133c15.9-13.2,26.2-33.7,26.2-56.7c0-39.9-30.8-72.3-68.8-72.3c-28.3,0-52.6,17.9-63.2,43.5L419.4,133z"
	/>
<rect x="244.1" y="10.2" class="st0" width="36.9" height="44.4"/>
<path class="st0" d="M149.2,497.6L111.9,476c-1.7-1-2.3-3.2-1.3-4.9l52.2-90.5c1-1.7,3.2-2.3,4.9-1.3l37.3,21.5
	c1.7,1,2.3,3.2,1.3,4.9l-52.2,90.5C153.1,498,150.9,498.5,149.2,497.6z"/>
<path class="st0" d="M376,497.6l37.3-21.5c1.7-1,2.3-3.2,1.3-4.9l-52.2-90.5c-1-1.7-3.2-2.3-4.9-1.3l-37.3,21.5
	c-1.7,1-2.3,3.2-1.3,4.9l52.2,90.5C372.1,498,374.3,498.5,376,497.6z"/>
<circle class="st1" cx="262.5" cy="246.4" r="161.1"/>
<path class="st0" d="M262.5,257.4L262.5,257.4c-6,0-10.9-4.9-10.9-10.9V125c0-6,4.9-10.9,10.9-10.9h0c6,0,10.9,4.9,10.9,10.9v121.5
	C273.4,252.5,268.5,257.4,262.5,257.4z"/>
<path class="st0" d="M371,324.6L371,324.6c-3.4,4.9-10.3,6.1-15.2,2.7l-99.5-69.7c-4.9-3.4-6.1-10.3-2.7-15.2l0,0
	c3.4-4.9,10.3-6.1,15.2-2.7l99.5,69.7C373.2,312.9,374.4,319.7,371,324.6z"/>
</svg>
