<svg id="Layer_1" data-name="Layer 1" xmlns="http://www.w3.org/2000/svg" viewBox="0 0 1365.67 288.64"><defs><style>.cls-1{fill:#f8fbf7;}.cls-2{fill:#fbe76b;}.cls-3{fill:#1d565f;}.cls-4{fill:#5cc4be;}.cls-5{fill:#f26b6c;}.cls-6{fill:#081e26;}.cls-7{fill:#fff;}.cls-8{fill:#a59a47;}.cls-9{fill:none;stroke:#1d565f;stroke-miterlimit:10;}</style></defs><title>background1</title><path class="cls-1" d="M981.34,202.23" transform="translate(-0.33 -2.36)"/><polyline class="cls-2" points="0 288.64 0 0.57 170.71 0.57 170.71 288.64"/><polyline class="cls-3" points="341.42 288.64 341.42 0.57 512.13 0.57 512.13 288.64"/><polyline class="cls-4" points="170.71 288.64 170.71 0.57 341.42 0.57 341.42 288.64"/><polyline class="cls-5" points="512.13 288.07 512.13 0 682.83 0 682.83 288.07"/><polyline class="cls-2" points="682.83 288.64 682.83 0.57 853.54 0.57 853.54 288.64"/><polyline class="cls-3" points="1024.25 288.64 1024.25 0.57 1194.96 0.57 1194.96 288.64"/><polyline class="cls-4" points="853.54 288.36 853.54 0.28 1024.25 0.28 1024.25 288.36"/><polyline class="cls-5" points="1194.96 288.36 1194.96 0.28 1365.67 0.28 1365.67 288.36"/><g id="piano"><rect class="cls-6" x="185.29" y="105.7" width="144.53" height="79.59"/><path class="cls-6" d="M185.69,113.39c0-38.76-4.48-81.3,46.52-81.3,56.83,0,43.68,37.56,51.64,42.25,7.47,4.41,30.8,2,39.55,8.47,7.33,5.4,6.76,20.41,6.76,30.58" transform="translate(-0.33 -2.36)"/><rect class="cls-3" x="182.3" y="105.27" width="144.53" height="79.59"/><path class="cls-7" d="M190.1,175.91V141.2a5.89,5.89,0,0,1,5.91-5.9h1.35a5.89,5.89,0,0,1,5.9,5.9v34.71a5.89,5.89,0,0,1-5.9,5.91H196A5.9,5.9,0,0,1,190.1,175.91Z" transform="translate(-0.33 -2.36)"/><path class="cls-7" d="M204.54,175.91V141.2a5.89,5.89,0,0,1,5.91-5.9h1.35a5.89,5.89,0,0,1,5.9,5.9v34.71a5.89,5.89,0,0,1-5.9,5.91h-1.35A5.9,5.9,0,0,1,204.54,175.91Z" transform="translate(-0.33 -2.36)"/><path class="cls-7" d="M219,175.91V141.2a5.89,5.89,0,0,1,5.91-5.9h1.35a5.89,5.89,0,0,1,5.9,5.9v34.71a5.89,5.89,0,0,1-5.9,5.91h-1.35A5.94,5.94,0,0,1,219,175.91Z" transform="translate(-0.33 -2.36)"/><path class="cls-7" d="M233.49,175.91V141.2a5.89,5.89,0,0,1,5.91-5.9h1.35a5.89,5.89,0,0,1,5.9,5.9v34.71a5.89,5.89,0,0,1-5.9,5.91H239.4A5.89,5.89,0,0,1,233.49,175.91Z" transform="translate(-0.33 -2.36)"/><path class="cls-7" d="M247.93,175.91V141.2a5.89,5.89,0,0,1,5.91-5.9h1.35a5.89,5.89,0,0,1,5.9,5.9v34.71a5.89,5.89,0,0,1-5.9,5.91h-1.35A5.89,5.89,0,0,1,247.93,175.91Z" transform="translate(-0.33 -2.36)"/><path class="cls-7" d="M262.44,175.91V141.2a5.89,5.89,0,0,1,5.91-5.9h1.35a5.89,5.89,0,0,1,5.9,5.9v34.71a5.89,5.89,0,0,1-5.9,5.91h-1.35A5.89,5.89,0,0,1,262.44,175.91Z" transform="translate(-0.33 -2.36)"/><rect class="cls-3" x="199.59" y="133.01" width="6.54" height="33.5"/><rect class="cls-3" x="214.74" y="133.01" width="6.54" height="33.5"/><rect class="cls-3" x="243.61" y="133.01" width="6.54" height="33.5"/><rect class="cls-3" x="258.13" y="133.01" width="6.54" height="33.5"/><path class="cls-7" d="M276.88,175.91V141.2a5.89,5.89,0,0,1,5.9-5.9h1.36a5.89,5.89,0,0,1,5.9,5.9v34.71a5.89,5.89,0,0,1-5.9,5.91h-1.36A5.89,5.89,0,0,1,276.88,175.91Z" transform="translate(-0.33 -2.36)"/><rect class="cls-3" x="272.56" y="133.01" width="6.54" height="33.5"/><path class="cls-7" d="M291.32,175.91V141.2a5.89,5.89,0,0,1,5.9-5.9h1.36a5.89,5.89,0,0,1,5.9,5.9v34.71a5.89,5.89,0,0,1-5.9,5.91h-1.36A5.89,5.89,0,0,1,291.32,175.91Z" transform="translate(-0.33 -2.36)"/><path class="cls-7" d="M305.83,175.91V141.2a5.89,5.89,0,0,1,5.9-5.9h1.36a5.89,5.89,0,0,1,5.9,5.9v34.71a5.89,5.89,0,0,1-5.9,5.91h-1.36A5.89,5.89,0,0,1,305.83,175.91Z" transform="translate(-0.33 -2.36)"/><rect class="cls-3" x="301.51" y="133.01" width="6.54" height="33.5"/><path class="cls-3" d="M182.64,113c0-38.77-4.49-81.37,46.59-81.37,56.83,0,43.67,37.55,51.63,42.25,7.47,4.41,30.73,2,39.55,8.46,7.4,5.41,6.76,20.41,6.76,30.66" transform="translate(-0.33 -2.36)"/><rect class="cls-7" x="182.3" y="126.4" width="144.6" height="0.64"/><polygon class="cls-6" points="182.3 184.79 185.29 184.79 185.29 185.22 182.3 184.79"/></g><g id="books"><path class="cls-5" d="M864.54,147l83.79,18.63a1,1,0,0,0,.86-.21l65.44-45.38c1.63-1.14,1.28-4.06-.5-4.48L943.21,97h0l-79,44.6C862.48,142.63,862.84,146.61,864.54,147Z" transform="translate(-0.33 -2.36)"/><path class="cls-5" d="M877.7,152.23c0,6.9-2.84,13.09-7.47,13.09s-9.38-6.19-9.38-13.09,3.77-12.45,8.39-12.45S877.7,145.33,877.7,152.23Z" transform="translate(-0.33 -2.36)"/><path class="cls-5" d="M869.81,165.53,936.38,183c.29.07-.28.21,0,0l77.46-44.24c1.64-1.14,1.43-5.06-.14-6.26l-82.15-18.92a.93.93,0,0,0-.86.21L865.33,158.2C863.62,159.41,868,165.17,869.81,165.53Z" transform="translate(-0.33 -2.36)"/><path class="cls-1" d="M866.54,146.25l-.93,2.21a9.82,9.82,0,0,0-.71,3.77v.14a10.09,10.09,0,0,0,.64,3.56l1,2.7,70.27,17.71-.28-16Z" transform="translate(-0.33 -2.36)"/><path class="cls-1" d="M937.1,160.27l.21,16,77.6-43-1.14-4.91c-.35-1.42-.78-1.71-.35-5.33l.64-2.64Z" transform="translate(-0.33 -2.36)"/><polygon class="cls-2" points="936.98 173.98 936.48 173.98 936.12 157.91 936.76 157.91 936.98 173.98"/><path class="cls-3" d="M867,116.31l70.85,26.74a.93.93,0,0,0,.92-.28l78-65c1.92-1.57,2.7-5.84,1.21-6.4L959,44.61h0l-90.33,63.8C866.75,110.05,865.54,115.74,867,116.31Z" transform="translate(-0.33 -2.36)"/><path class="cls-3" d="M877.49,121.79c-2.63,9.88-8.18,17.85-12.52,17.85,0,0-5.76-8-3.13-17.85s8.18-17.86,12.52-17.86S880.12,112,877.49,121.79Z" transform="translate(-0.33 -2.36)"/><path class="cls-3" d="M865,139.64l64.3,24.47c.29.07.21.14.43.07L1012.14,104c1.92-1.56,3.2-7.18,2.2-9l-69.28-27.1a.92.92,0,0,0-.92.29l-77.53,63.51C864.69,133.38,863.55,139.07,865,139.64Z" transform="translate(-0.33 -2.36)"/><path class="cls-1" d="M870.31,115.6h0a2.66,2.66,0,0,0-1.78,1.14,4,4,0,0,0-.64,1.06,26.7,26.7,0,0,0-1.43,4,.26.26,0,0,1-.07.21v.07a13.42,13.42,0,0,0,.71,8.32l1.36,3.2,57.9,21.48.07-18.7-54.77-20.7A3,3,0,0,0,870.31,115.6Z" transform="translate(-0.33 -2.36)"/><path class="cls-1" d="M926.92,136.58l.08,18.85,86.06-60.6-.5-5.12c.22-2.07-.57-4.06,1.21-9.25h0Z" transform="translate(-0.33 -2.36)"/><polygon class="cls-2" points="926.66 153.07 926.02 152.71 926.09 134.01 926.59 134.22 926.66 153.07"/><path class="cls-2" d="M863.41,86.22l83.79,18.64a.92.92,0,0,0,.85-.22l65.44-45.38c1.63-1.13,1.28-4-.5-4.48L942.07,36.15h0l-79,44.59C861.34,81.81,861.63,85.79,863.41,86.22Z" transform="translate(-0.33 -2.36)"/><path class="cls-2" d="M876.57,91.41c0,6.9-2.78,13.09-7.47,13.09s-9.39-6.19-9.39-13.09S863.48,79,868.1,79,876.57,84.51,876.57,91.41Z" transform="translate(-0.33 -2.36)"/><path class="cls-2" d="M868.6,104.71l66.57,17.5c.29.07-.28.22,0,0L1012.63,78c1.64-1.14,1.43-5-.14-6.26L930.34,52.79a1,1,0,0,0-.86.21L864.12,97.39C862.41,98.53,866.82,104.36,868.6,104.71Z" transform="translate(-0.33 -2.36)"/><path class="cls-1" d="M865.33,85.44l-.86,2.2a10,10,0,0,0-.71,3.77v.15a10.31,10.31,0,0,0,.64,3.55l1,2.71,70.27,17.71-.28-16Z" transform="translate(-0.33 -2.36)"/><path class="cls-1" d="M935.89,99.45l.21,16,77.6-43-1.14-4.9c-.35-1.43-.71-1.71-.35-5.34l.64-2.63Z" transform="translate(-0.33 -2.36)"/><polygon class="cls-2" points="935.84 113.09 935.27 113.09 934.98 97.09 935.55 97.09 935.84 113.09"/></g><g id="clock"><ellipse class="cls-8" cx="601.04" cy="114.3" rx="57.47" ry="51.5"/><ellipse class="cls-2" cx="593.92" cy="110.39" rx="57.47" ry="51.5"/><ellipse class="cls-3" cx="564.83" cy="165.8" rx="10.95" ry="9.82"/><ellipse class="cls-3" cx="623.51" cy="165.8" rx="10.95" ry="9.82"/><ellipse class="cls-9" cx="593.92" cy="48.87" rx="11.17" ry="9.96"/><ellipse class="cls-9" cx="594.14" cy="49.08" rx="10.67" ry="9.82"/><ellipse class="cls-9" cx="593.92" cy="49.22" rx="10.46" ry="9.67"/><ellipse class="cls-3" cx="594.28" cy="110.18" rx="1.56" ry="1.35"/><rect class="cls-3" x="593.21" y="59.46" width="1.99" height="49.36"/><rect class="cls-3" x="595.91" y="109.25" width="39.19" height="1.78"/><ellipse class="cls-9" cx="593.92" cy="109.25" rx="43.82" ry="39.26"/></g><g id="camera"><rect class="cls-3" x="1211.96" y="80.8" width="136.78" height="78.45"/><rect class="cls-4" x="1211.96" y="64.37" width="136.78" height="16.36"/><circle class="cls-1" cx="1295.18" cy="115.58" r="42.96"/><circle class="cls-3" cx="1295.75" cy="115.58" r="29.52"/><circle class="cls-1" cx="1296.32" cy="114.45" r="15.51"/><circle class="cls-3" cx="1295.75" cy="115.58" r="7.97"/><rect class="cls-1" x="1215.8" y="60.03" width="13.16" height="4.41"/><rect class="cls-1" x="1235.22" y="55.27" width="13.16" height="9.18"/></g></svg>