<?xml version="1.0" encoding="utf-8"?>
<!-- Generator: Adobe Illustrator 22.1.0, SVG Export Plug-In . SVG Version: 6.00 Build 0)  -->
<svg version="1.1" id="Layer_1" xmlns="http://www.w3.org/2000/svg" xmlns:xlink="http://www.w3.org/1999/xlink" x="0px" y="0px"
	 viewBox="0 0 1920 1080" style="enable-background:new 0 0 1920 1080;" xml:space="preserve">
<style type="text/css">
	.st0{fill:#F8FBF7;}
	.st1{fill:#FBE76B;}
	.st2{fill:#1D565F;}
	.st3{fill:#F26B6C;}
	.st4{fill:#5CC4BE;}
	.st5{fill:#B54F51;}
</style>
<title>background</title>
<g id="Background">
	<path class="st0" d="M419.2,280.2"/>
	<rect y="0" class="st1" width="240" height="405"/>
	<rect x="480" y="0" class="st2" width="240" height="405"/>
	<rect x="480" y="403.5" class="st1" width="240" height="675"/>
	<rect x="240" y="675" class="st3" width="240" height="405"/>
	<rect y="405" class="st2" width="240" height="675"/>
	<rect x="720" y="675" class="st4" width="240" height="405"/>
	<rect x="240" y="0" class="st4" width="240" height="675"/>
	<rect x="720" y="0" class="st3" width="240" height="675"/>
</g>
<g id="case">
	<polyline class="st3" points="212.7,867 185.3,912.2 52.6,912.2 25.6,867 	"/>
	<polygon class="st1" points="208.7,856.9 29.2,856.9 25.3,867 212.7,867 	"/>
	<polygon class="st2" points="185.3,914.4 52.6,914.4 52.6,912.2 185.3,912.2 	"/>
	<polyline class="st1" points="26.3,973.8 52.6,914.4 185.3,914.4 214.7,973.8 	"/>
	<polyline class="st3" points="32.2,971 57,914.4 182.3,914.4 208.6,971 	"/>
	<polygon class="st2" points="214.7,975.2 26.1,975.2 26.3,973.8 214.7,973.8 	"/>
	<polygon class="st5" points="25.3,867 35.3,867 62.9,912.2 52.6,912.2 	"/>
	<polygon class="st5" points="212.7,867 202.7,867 175.1,912.2 185.3,912.2 	"/>
	<polygon class="st5" points="46,971 32.2,971 57,914.4 62.9,914.4 62.9,938.9 	"/>
	<polygon class="st5" points="193.1,971 208.6,971 182.2,914.4 175.1,914.4 175.1,938.9 	"/>
	<rect x="26.1" y="975.2" class="st1" width="188.6" height="28"/>
	<polygon class="st5" points="194.5,971 46,971 47.6,938.9 191.8,938.9 	"/>
	<path class="st2" d="M103.8,982h4.5c0.1,0,0.2,0.1,0.2,0.2v0.3c0,0.1-0.1,0.2-0.2,0.2h-4.5c-0.1,0-0.2-0.1-0.2-0.2v-0.3
		C103.6,982.1,103.7,982,103.8,982z"/>
	<path class="st2" d="M103.8,982h0.4c0.1,0,0.2,0.1,0.2,0.2v10.2c0,0.1-0.1,0.2-0.2,0.2h-0.4c-0.1,0-0.2-0.1-0.2-0.2v-10.2
		C103.6,982.1,103.7,982,103.8,982z"/>
	<path class="st2" d="M133.8,982h0.4c0.1,0,0.2,0.1,0.2,0.2v10.7c0,0.1-0.1,0.2-0.2,0.2h-0.4c-0.1,0-0.2-0.1-0.2-0.2v-10.7
		C133.6,982.1,133.6,982,133.8,982z"/>
	<path class="st2" d="M103.8,991.3h30.4c0.1,0,0.2,0.1,0.2,0.2v4.7c0,0.1-0.1,0.2-0.2,0.2h-30.4c-0.1,0-0.2-0.1-0.2-0.2v-4.7
		C103.6,991.4,103.7,991.3,103.8,991.3z"/>
	<path class="st2" d="M129.7,982h4.5c0.1,0,0.2,0.1,0.2,0.2v0.3c0,0.1-0.1,0.2-0.2,0.2h-4.5c-0.1,0-0.2-0.1-0.2-0.2v-0.3
		C129.5,982.1,129.6,982,129.7,982z"/>
	<polygon class="st2" points="212.7,867 25.3,867 25.7,865.7 212.1,865.7 	"/>
</g>
<g id="books">
	<path class="st3" d="M255,202.6l117.8,26.2c0.4,0.1,0.9,0,1.2-0.3l92-63.8c2.3-1.6,1.8-5.7-0.7-6.3l-99.7-26.2l0,0l-111.1,62.7
		C252.1,196.4,252.6,202,255,202.6z"/>
	<path class="st3" d="M273.5,209.9c0,9.7-4,18.4-10.5,18.4s-13.2-8.7-13.2-18.4s5.3-17.5,11.8-17.5S273.5,200.2,273.5,209.9z"/>
	<path class="st3" d="M262.4,228.6l93.6,24.6c0.4,0.1-0.4,0.3,0,0l108.9-62.2c2.3-1.6,2-7.1-0.2-8.8l-115.5-26.6
		c-0.4-0.1-0.9,0-1.2,0.3L256,218.4C253.7,220,259.9,228.1,262.4,228.6z"/>
	<path class="st0" d="M257.8,201.5l-1.3,3.1c-0.7,1.7-1,3.5-1,5.3v0.2c0,1.7,0.3,3.4,0.9,5l1.4,3.8l98.8,24.9l-0.4-22.5L257.8,201.5
		z"/>
	<path class="st0" d="M357,221.2l0.3,22.5l109.1-60.4l-1.6-6.9c-0.5-2-1.1-2.4-0.5-7.5l0.9-3.7L357,221.2z"/>
	<polygon class="st1" points="357.3,243.8 356.6,243.8 356.1,221.2 357,221.2 	"/>
	<path class="st2" d="M258.5,159.4l99.6,37.6c0.5,0.1,0.9,0,1.3-0.4L469,105.2c2.7-2.2,3.8-8.2,1.7-9l-82.9-37.6l0,0l-127,89.7
		C258.1,150.6,256.4,158.6,258.5,159.4z"/>
	<path class="st2" d="M273.2,167.1c-3.7,13.9-11.5,25.1-17.6,25.1c0,0-8.1-11.2-4.4-25.1s11.5-25.1,17.6-25.1
		S276.9,153.3,273.2,167.1z"/>
	<path class="st2" d="M255.6,192.2l90.4,34.4c0.4,0.1,0.3,0.2,0.6,0.1l115.9-84.6c2.7-2.2,4.5-10.1,3.1-12.6l-97.4-38.1
		c-0.5-0.1-0.9,0-1.3,0.4l-109,89.3C255.2,183.4,253.6,191.4,255.6,192.2z"/>
	<path class="st0" d="M263.1,158.4L263.1,158.4c-1,0.2-1.9,0.7-2.5,1.6c-0.4,0.5-0.7,1-0.9,1.5c-0.8,1.8-1.5,3.7-2,5.6
		c0,0.1,0,0.2-0.1,0.3v0.1c-0.9,3.9-0.6,8,1,11.7l1.9,4.5l81.4,30.2l0.1-26.3l-77-29.1C264.4,158.3,263.7,158.3,263.1,158.4z"/>
	<path class="st0" d="M342.7,187.9l0.1,26.5l121-85.2l-0.7-7.2c0.3-2.9-0.8-5.7,1.7-13l0,0L342.7,187.9z"/>
	<polygon class="st1" points="342.8,214.4 341.9,213.9 342,187.6 342.7,187.9 	"/>
	<path class="st1" d="M253.4,117.1l117.8,26.2c0.4,0.1,0.9,0,1.2-0.3l92-63.8c2.3-1.6,1.8-5.7-0.7-6.3l-99.7-26.2l0,0l-111.1,62.7
		C250.5,110.9,250.9,116.5,253.4,117.1z"/>
	<path class="st1" d="M271.9,124.4c0,9.7-3.9,18.4-10.5,18.4s-13.2-8.7-13.2-18.4s5.3-17.5,11.8-17.5S271.9,114.7,271.9,124.4z"/>
	<path class="st1" d="M260.7,143.1l93.6,24.6c0.4,0.1-0.4,0.3,0,0l108.9-62.2c2.3-1.6,2-7.1-0.2-8.8L347.5,70.2
		c-0.4-0.1-0.9,0-1.2,0.3l-91.9,62.4C252,134.4,258.2,142.6,260.7,143.1z"/>
	<path class="st0" d="M256.1,116l-1.2,3.1c-0.7,1.7-1,3.5-1,5.3v0.2c0,1.7,0.3,3.4,0.9,5l1.4,3.8l98.8,24.9l-0.4-22.5L256.1,116z"/>
	<path class="st0" d="M355.3,135.7l0.3,22.5l109.1-60.4l-1.6-6.9c-0.5-2-1-2.4-0.5-7.5l0.9-3.7L355.3,135.7z"/>
	<polygon class="st1" points="355.7,158.2 354.9,158.2 354.5,135.7 355.3,135.7 	"/>
</g>
<g id="tea_pots">
	<path class="st0" d="M650.8,884.4c12.5,14.5,17.2,59.3,17.1,81.4c-0.2,44.1-25.5,59.9-63.8,59.7s-66.8-19.3-66.6-63.4
		c0.1-22,6.5-63.8,19.1-78.1"/>
	<path class="st0" d="M538.7,945.5c1.5,1.6,2.5,0.8,2.8,3.3l4.4,46l0,0c-15.5-8.4-24.8-8.5-27.8-47.3l-0.7-7.8
		c-0.6-2.4-1.4-4.8-2.3-7.1c-1.2-3.2-2.8-6.2-5-8.8l-21.6-25.9c-0.6-0.7-0.2-2,0.6-2c4.6-0.2,15.3,0.4,16,0.4h9.4
		c1.6,0.4,3,1.3,4.2,2.5"/>
	<path class="st0" d="M686.2,963.9c4.1-1.7,12.1-3.6,16.6-9.5c2.8-3.8,1-19.5,0.9-19.7c-1.6-19.5-8.9-15.3-20.4-10.5
		c-1.5,0.5-2.9,1.1-4.4,1.8l-18.7,9.3l-2.1-15.6l32.1-11.5c6.2-2.3,12.1-1.2,16.2,3.5c6.1,6.9,6.4,38.2,4.3,45.5
		c-1.7,6-3.2,7.8-7.6,11.1L657.7,992l-3.4-17.5"/>
	<ellipse class="st2" cx="603.3" cy="884.2" rx="47" ry="4.4"/>
	<path class="st0" d="M651.3,866.7c0,9.2-21.4,11.4-47.8,11.4s-47.8-2.2-47.8-11.4s21.4-16.7,47.8-16.7S651.3,857.5,651.3,866.7z"/>
	<ellipse class="st0" cx="606.3" cy="842.3" rx="6.3" ry="7.7"/>
</g>
<g id="camera">
	<rect x="743.9" y="112.8" class="st2" width="192.3" height="110.3"/>
	<rect x="743.9" y="89.7" class="st4" width="192.3" height="23"/>
	<circle class="st0" cx="860.9" cy="161.7" r="60.4"/>
	<circle class="st2" cx="861.7" cy="161.7" r="41.5"/>
	<circle class="st0" cx="862.5" cy="160.1" r="21.8"/>
	<circle class="st2" cx="861.7" cy="161.7" r="11.2"/>
	<rect x="749.3" y="83.6" class="st0" width="18.5" height="6.2"/>
	<rect x="776.6" y="76.9" class="st0" width="18.5" height="12.9"/>
</g>
<rect x="960" class="st2" width="960" height="1080"/>
</svg>
