<?xml version="1.0" encoding="utf-8"?>
<!-- Generator: Adobe Illustrator 22.1.0, SVG Export Plug-In . SVG Version: 6.00 Build 0)  -->
<svg version="1.1" id="Layer_1" xmlns="http://www.w3.org/2000/svg" xmlns:xlink="http://www.w3.org/1999/xlink" x="0px" y="0px"
	 viewBox="0 0 1920 1080" style="enable-background:new 0 0 1920 1080;" xml:space="preserve">
<style type="text/css">
	.st0{fill:#F8FBF7;}
	.st1{fill:#1D565F;}
	.st2{fill:#FBE76B;}
	.st3{fill:#F26B6C;}
	.st4{fill:#5CC4BE;}
	.st5{fill:#464748;}
	.st6{fill:#081E26;}
	.st7{fill:#FFFFFF;}
	.st8{fill:#A59A47;}
	.st9{fill:none;stroke:#1D565F;stroke-miterlimit:10;}
	.st10{fill:#F7FBF5;}
</style>
<title>background</title>
<path class="st0" d="M2100,280.2"/>
<g>
	<rect x="1200" class="st1" width="240" height="405"/>
	<rect x="1200" y="403.5" class="st2" width="240" height="675"/>
	<rect x="960" y="675" class="st3" width="240" height="405"/>
	<rect x="1440" y="675" class="st4" width="240" height="405"/>
	<rect x="960" class="st4" width="240" height="675"/>
	<rect x="1440" class="st3" width="240" height="675"/>
	<rect x="1680" class="st2" width="240" height="405"/>
	<rect x="1680" y="405" class="st1" width="240" height="675"/>
	<ellipse class="st5" cx="1800.3" cy="1040.9" rx="34.8" ry="8.5"/>
	
		<ellipse transform="matrix(0.1243 -0.9922 0.9922 0.1243 509.5255 2648.1611)" class="st5" cx="1755.1" cy="1035.4" rx="8.5" ry="34.8"/>
	
		<ellipse transform="matrix(0.9833 -0.1819 0.1819 0.9833 -157.5595 352.9077)" class="st5" cx="1845.2" cy="1035.5" rx="34.8" ry="8.5"/>
	<path class="st3" d="M1809,777.8l-31.4-0.8l-7.6-26.4h-4.5l8.6,32.8c0,0-3.7,16.4-3.3,27.8c0.4,11.5,4.5,25.5,4.5,25.5
		s-10.4,14.8-15.4,26.4c-5,11.6-39.1,165.9-39.1,165.9l89.4,0.4"/>
	<path class="st3" d="M1791.3,777.8l31.4-0.8l7.6-26.4h4.5l-8.6,32.8c0,0,3.7,16.4,3.3,27.8s-4.5,25.5-4.5,25.5s10.4,14.8,15.4,26.4
		s39.2,165.9,39.2,165.9l-89.4,0.4"/>
	
		<ellipse transform="matrix(0.1819 -0.9833 0.9833 0.1819 410.971 2560.8132)" class="st3" cx="1744.5" cy="1033.4" rx="6.8" ry="24.1"/>
	
		<ellipse transform="matrix(0.1819 -0.9833 0.9833 0.1819 434.6893 2593.2642)" class="st3" cx="1775.8" cy="1035.4" rx="6.8" ry="24.1"/>
	
		<ellipse transform="matrix(0.9833 -0.1819 0.1819 0.9833 -157.0115 354.7928)" class="st3" cx="1855.8" cy="1033.4" rx="24.1" ry="6.8"/>
	
		<ellipse transform="matrix(0.9833 -0.1819 0.1819 0.9833 -157.8144 349.975)" class="st3" cx="1829.1" cy="1035.4" rx="24.1" ry="6.8"/>
	<ellipse class="st3" cx="1803.1" cy="1035.4" rx="26" ry="11.1"/>
	<rect x="980.5" y="147.8" class="st6" width="203.2" height="111.9"/>
	<path class="st6" d="M980.6,155.3c0-54.5-6.3-114.3,65.4-114.3c79.9,0,61.4,52.8,72.6,59.4c10.5,6.2,43.3,2.8,55.6,11.9
		c10.3,7.6,9.5,28.7,9.5,43"/>
	<rect x="976.3" y="147.2" class="st1" width="203.2" height="111.9"/>
	<path class="st7" d="M986.8,243.2v-48.8c0-4.6,3.7-8.3,8.3-8.3h1.9c4.6,0,8.3,3.7,8.3,8.3v48.8c0,4.6-3.7,8.3-8.3,8.3h-1.9
		C990.5,251.5,986.8,247.8,986.8,243.2z"/>
	<path class="st7" d="M1007.1,243.2v-48.8c0-4.6,3.7-8.3,8.3-8.3h1.9c4.6,0,8.3,3.7,8.3,8.3v48.8c0,4.6-3.7,8.3-8.3,8.3h-1.9
		C1010.8,251.5,1007.1,247.8,1007.1,243.2z"/>
	<path class="st7" d="M1027.4,243.2v-48.8c0-4.6,3.7-8.3,8.3-8.3h1.9c4.6,0,8.3,3.7,8.3,8.3v48.8c0,4.6-3.7,8.3-8.3,8.3h-1.9
		C1031.2,251.5,1027.4,247.8,1027.4,243.2z"/>
	<path class="st7" d="M1047.8,243.2v-48.8c0-4.6,3.7-8.3,8.3-8.3h1.9c4.6,0,8.3,3.7,8.3,8.3v48.8c0,4.6-3.7,8.3-8.3,8.3h-1.9
		C1051.5,251.5,1047.8,247.8,1047.8,243.2z"/>
	<path class="st7" d="M1068.1,243.2v-48.8c0-4.6,3.7-8.3,8.3-8.3h1.9c4.6,0,8.3,3.7,8.3,8.3v48.8c0,4.6-3.7,8.3-8.3,8.3h-1.9
		C1071.8,251.5,1068.1,247.8,1068.1,243.2z"/>
	<path class="st7" d="M1088.4,243.2v-48.8c0-4.6,3.7-8.3,8.3-8.3h1.9c4.6,0,8.3,3.7,8.3,8.3v48.8c0,4.6-3.7,8.3-8.3,8.3h-1.9
		C1092.2,251.5,1088.4,247.8,1088.4,243.2z"/>
	<rect x="1000.6" y="186.2" class="st1" width="9.2" height="47.1"/>
	<rect x="1021.9" y="186.2" class="st1" width="9.2" height="47.1"/>
	<rect x="1062.6" y="186.2" class="st1" width="9.2" height="47.1"/>
	<rect x="1082.9" y="186.2" class="st1" width="9.2" height="47.1"/>
	<path class="st7" d="M1108.8,243.2v-48.8c0-4.6,3.7-8.3,8.3-8.3h1.9c4.6,0,8.3,3.7,8.3,8.3v48.8c0,4.6-3.7,8.3-8.3,8.3h-1.9
		C1112.5,251.5,1108.8,247.8,1108.8,243.2z"/>
	<rect x="1103.2" y="186.2" class="st1" width="9.2" height="47.1"/>
	<path class="st7" d="M1129.1,243.2v-48.8c0-4.6,3.7-8.3,8.3-8.3h1.9c4.6,0,8.3,3.7,8.3,8.3v48.8c0,4.6-3.7,8.3-8.3,8.3h-1.9
		C1132.8,251.5,1129.1,247.8,1129.1,243.2z"/>
	<path class="st7" d="M1149.5,243.2v-48.8c0-4.6,3.7-8.3,8.3-8.3h1.9c4.6,0,8.3,3.7,8.3,8.3v48.8c0,4.6-3.7,8.3-8.3,8.3h-1.9
		C1153.2,251.5,1149.5,247.8,1149.5,243.2z"/>
	<rect x="1143.9" y="186.2" class="st1" width="9.2" height="47.1"/>
	<path class="st1" d="M976.3,154.8c0-54.5-6.3-114.4,65.5-114.4c79.9,0,61.4,52.8,72.6,59.4c10.5,6.2,43.2,2.8,55.6,11.9
		c10.3,7.6,9.5,28.7,9.5,43.1"/>
	<rect x="976.3" y="176.9" class="st7" width="203.3" height="0.9"/>
	<polygon class="st6" points="976.3,259 980.5,259 980.5,259.6 	"/>
	<ellipse class="st8" cx="1565" cy="159.9" rx="80.8" ry="72.4"/>
	<ellipse class="st2" cx="1555" cy="154.4" rx="80.8" ry="72.4"/>
	<ellipse class="st1" cx="1514.1" cy="232.3" rx="15.4" ry="13.8"/>
	<ellipse class="st1" cx="1596.6" cy="232.3" rx="15.4" ry="13.8"/>
	<ellipse class="st9" cx="1555" cy="67.9" rx="15.7" ry="14"/>
	<ellipse class="st9" cx="1555.3" cy="68.2" rx="15" ry="13.8"/>
	<ellipse class="st9" cx="1555" cy="68.4" rx="14.7" ry="13.6"/>
	<ellipse class="st1" cx="1555.5" cy="154.1" rx="2.2" ry="1.9"/>
	<rect x="1554" y="82.8" class="st1" width="2.8" height="69.4"/>
	<rect x="1557.8" y="152.8" class="st1" width="55.1" height="2.5"/>
	<ellipse class="st9" cx="1555" cy="152.8" rx="61.6" ry="55.2"/>
	<polygon class="st0" points="1283.3,966 1264.9,966 1283.3,955.6 1301.6,955.6 	"/>
	<polygon class="st1" points="1301.6,966 1283.3,966 1301.6,955.6 1320,955.6 	"/>
	<polygon class="st0" points="1320,966 1301.6,966 1320,955.6 1338.4,955.6 	"/>
	<polygon class="st1" points="1338.4,966 1320,966 1338.4,955.6 1356.8,955.6 	"/>
	<polygon class="st0" points="1356.8,966 1338.4,966 1356.8,955.6 1375.1,955.6 	"/>
	<polygon class="st1" points="1375.1,966 1356.8,966 1375.1,955.6 1393.5,955.6 	"/>
	<polygon class="st0" points="1246.5,997 1228.1,997 1246.5,986.7 1264.9,986.7 	"/>
	<polygon class="st1" points="1264.9,997 1246.5,997 1264.9,986.7 1283.3,986.7 	"/>
	<polygon class="st0" points="1283.3,997 1264.9,997 1283.3,986.7 1301.6,986.7 	"/>
	<polygon class="st1" points="1301.6,997 1283.3,997 1301.6,986.7 1320,986.7 	"/>
	<polygon class="st0" points="1320,997 1301.6,997 1320,986.7 1338.4,986.7 	"/>
	<polygon class="st1" points="1228.1,997 1209.8,997 1228.1,986.7 1246.5,986.7 	"/>
	<polygon class="st0" points="1246.5,986.7 1228.1,986.7 1246.5,976.3 1264.9,976.3 	"/>
	<polygon class="st1" points="1264.9,986.7 1246.5,986.7 1264.9,976.3 1283.3,976.3 	"/>
	<polygon class="st0" points="1283.3,986.7 1264.9,986.7 1283.3,976.3 1301.6,976.3 	"/>
	<polygon class="st1" points="1301.6,986.7 1283.3,986.7 1301.6,976.3 1320,976.3 	"/>
	<polygon class="st0" points="1320,986.7 1301.6,986.7 1320,976.3 1338.4,976.3 	"/>
	<polygon class="st1" points="1338.4,986.7 1320,986.7 1338.4,976.3 1356.8,976.3 	"/>
	<polygon class="st0" points="1320,945.3 1301.6,945.3 1320,934.9 1338.4,934.9 	"/>
	<polygon class="st1" points="1338.4,945.3 1320,945.3 1338.4,934.9 1356.8,934.9 	"/>
	<polygon class="st0" points="1356.8,945.3 1338.4,945.3 1356.8,934.9 1375.1,934.9 	"/>
	<polygon class="st1" points="1375.1,945.3 1356.8,945.3 1375.1,934.9 1393.5,934.9 	"/>
	<polygon class="st0" points="1393.5,945.3 1375.1,945.3 1393.5,934.9 1411.9,934.9 	"/>
	<polygon class="st1" points="1411.9,945.3 1393.5,945.3 1411.9,934.9 1430.3,934.9 	"/>
	<polygon class="st0" points="1320,955.6 1301.6,955.6 1320,945.3 1338.4,945.3 	"/>
	<polygon class="st1" points="1338.4,955.6 1320,955.6 1338.4,945.3 1356.8,945.3 	"/>
	<polygon class="st0" points="1356.8,955.6 1338.4,955.6 1356.8,945.3 1375.1,945.3 	"/>
	<polygon class="st1" points="1375.1,955.6 1356.8,955.6 1375.1,945.3 1393.5,945.3 	"/>
	<polygon class="st0" points="1393.5,955.6 1375.1,955.6 1393.5,945.3 1411.9,945.3 	"/>
	<polygon class="st1" points="1301.6,955.6 1283.3,955.6 1301.6,945.3 1320,945.3 	"/>
	<polygon class="st0" points="1283.3,976.3 1264.9,976.3 1283.3,966 1301.6,966 	"/>
	<polygon class="st1" points="1301.6,976.3 1283.3,976.3 1301.6,966 1320,966 	"/>
	<polygon class="st0" points="1320,976.3 1301.6,976.3 1320,966 1338.4,966 	"/>
	<polygon class="st1" points="1338.4,976.3 1320,976.3 1338.4,966 1356.8,966 	"/>
	<polygon class="st0" points="1356.8,976.3 1338.4,976.3 1356.8,966 1375.1,966 	"/>
	<polygon class="st1" points="1264.9,976.3 1246.5,976.3 1264.9,966 1283.3,966 	"/>
	<rect x="1209.7" y="997" class="st5" width="110.3" height="2.4"/>
	<polygon class="st5" points="1430.3,934.9 1320,997 1320,999.4 1430.3,937.2 	"/>
	<polyline class="st0" points="1294.3,912.1 1290.1,884.2 1281.6,884.2 1277.3,912.1 	"/>
	<polyline class="st0" points="1310.8,922.4 1298.9,912.1 1275,912.1 1263,922.4 	"/>
	<ellipse class="st0" cx="1286.9" cy="926.2" rx="23.9" ry="1.3"/>
	<ellipse class="st0" cx="1285.8" cy="871.4" rx="10.4" ry="10.8"/>
	<ellipse class="st0" cx="1285.8" cy="883.2" rx="10.1" ry="1"/>
	<path class="st0" d="M1310.8,922.4c0,2.3-10.7,2.1-23.9,2.1c-13.2,0-23.9,0.2-23.9-2.1"/>
	<polyline class="st1" points="1340.5,937.3 1336.2,909.4 1327.7,909.4 1323.4,937.3 	"/>
	<polyline class="st1" points="1357,947.6 1345,937.3 1321.1,937.3 1309.2,947.6 	"/>
	<ellipse class="st1" cx="1333.1" cy="951.4" rx="23.9" ry="1.3"/>
	<ellipse class="st1" cx="1332" cy="896.7" rx="10.4" ry="10.8"/>
	<ellipse class="st1" cx="1332" cy="908.4" rx="10.1" ry="1"/>
	<path class="st1" d="M1357,947.6c0,2.3-10.7,2.1-23.9,2.1s-23.9,0.2-23.9-2.1"/>
</g>
<rect class="st10" width="960" height="1080"/>
</svg>
