<?xml version="1.0" encoding="utf-8"?>
<!-- Generator: Adobe Illustrator 22.1.0, SVG Export Plug-In . SVG Version: 6.00 Build 0)  -->
<svg version="1.1" id="Layer_1" xmlns="http://www.w3.org/2000/svg" xmlns:xlink="http://www.w3.org/1999/xlink" x="0px" y="0px"
	 viewBox="0 0 1920 1080" style="enable-background:new 0 0 1920 1080;" xml:space="preserve">
<style type="text/css">
	.st0{fill:#F8FBF7;}
	.st1{fill:#FBE76B;}
	.st2{fill:#1D565F;}
	.st3{fill:#F26B6C;}
	.st4{fill:#5CC4BE;}
	.st5{fill:#F7FBF5;}
	.st6{fill:#B54F51;}
	.st7{fill:#464748;}
	.st8{fill:#081E26;}
	.st9{fill:#FFFFFF;}
	.st10{fill:#A59A47;}
	.st11{fill:none;stroke:#1D565F;stroke-miterlimit:10;}
</style>
<title>background</title>
<g id="Background">
	<path class="st0" d="M1379.2,280.2"/>
	<rect class="st1" width="240" height="405"/>
	<rect x="480" class="st2" width="240" height="405"/>
	<rect x="480" y="674.2" class="st1" width="240" height="405"/>
	<rect x="240" y="675" class="st3" width="240" height="405"/>
	<rect y="675" class="st2" width="240" height="405"/>
	<rect x="720" y="675" class="st4" width="240" height="405"/>
	<rect x="240" class="st4" width="240" height="405"/>
	<rect x="720" y="-0.8" class="st3" width="240" height="405"/>
	<rect x="960" class="st1" width="240" height="405"/>
	<rect x="1440" class="st2" width="240" height="405"/>
	<rect x="1440" y="674.2" class="st1" width="240" height="405"/>
	<rect x="1200" y="675" class="st3" width="240" height="405"/>
	<rect x="960" y="674.6" class="st2" width="240" height="405"/>
	<rect x="1680" y="675" class="st4" width="240" height="405"/>
	<rect x="1200" y="-0.4" class="st4" width="240" height="405"/>
	<rect x="1680" y="-0.4" class="st3" width="240" height="405"/>
	<rect y="405" class="st5" width="1920" height="270"/>
</g>
<g id="case">
	<polyline class="st3" points="1172.7,867 1145.3,912.2 1012.6,912.2 985.6,867 	"/>
	<polygon class="st1" points="1168.7,856.9 989.2,856.9 985.3,867 1172.7,867 	"/>
	<polygon class="st2" points="1145.3,914.4 1012.6,914.4 1012.6,912.2 1145.3,912.2 	"/>
	<polyline class="st1" points="986.3,973.8 1012.6,914.4 1145.3,914.4 1174.7,973.8 	"/>
	<polyline class="st3" points="992.2,971 1017,914.4 1142.3,914.4 1168.6,971 	"/>
	<polygon class="st2" points="1174.7,975.2 986.1,975.2 986.3,973.8 1174.7,973.8 	"/>
	<polygon class="st6" points="985.3,867 995.3,867 1022.9,912.2 1012.6,912.2 	"/>
	<polygon class="st6" points="1172.7,867 1162.7,867 1135.1,912.2 1145.3,912.2 	"/>
	<polygon class="st6" points="1006,971 992.2,971 1017,914.4 1022.9,914.4 1022.9,938.9 	"/>
	<polygon class="st6" points="1153.1,971 1168.6,971 1142.2,914.4 1135.1,914.4 1135.1,938.9 	"/>
	<rect x="986.1" y="975.2" class="st1" width="188.6" height="28"/>
	<polygon class="st6" points="1154.5,971 1006,971 1007.6,938.9 1151.8,938.9 	"/>
	<path class="st2" d="M1063.8,982h4.5c0.1,0,0.2,0.1,0.2,0.2v0.3c0,0.1-0.1,0.2-0.2,0.2h-4.5c-0.1,0-0.2-0.1-0.2-0.2v-0.3
		C1063.6,982.1,1063.7,982,1063.8,982z"/>
	<path class="st2" d="M1063.8,982h0.4c0.1,0,0.2,0.1,0.2,0.2v10.2c0,0.1-0.1,0.2-0.2,0.2h-0.4c-0.1,0-0.2-0.1-0.2-0.2v-10.2
		C1063.6,982.1,1063.7,982,1063.8,982z"/>
	<path class="st2" d="M1093.8,982h0.4c0.1,0,0.2,0.1,0.2,0.2v10.7c0,0.1-0.1,0.2-0.2,0.2h-0.4c-0.1,0-0.2-0.1-0.2-0.2v-10.7
		C1093.6,982.1,1093.6,982,1093.8,982z"/>
	<path class="st2" d="M1063.8,991.3h30.4c0.1,0,0.2,0.1,0.2,0.2v4.7c0,0.1-0.1,0.2-0.2,0.2h-30.4c-0.1,0-0.2-0.1-0.2-0.2v-4.7
		C1063.6,991.4,1063.7,991.3,1063.8,991.3z"/>
	<path class="st2" d="M1089.7,982h4.5c0.1,0,0.2,0.1,0.2,0.2v0.3c0,0.1-0.1,0.2-0.2,0.2h-4.5c-0.1,0-0.2-0.1-0.2-0.2v-0.3
		C1089.5,982.1,1089.6,982,1089.7,982z"/>
	<polygon class="st2" points="1172.7,867 985.3,867 985.7,865.7 1172.1,865.7 	"/>
</g>
<g id="dress">
	<ellipse class="st7" cx="120.3" cy="1040.9" rx="34.8" ry="8.5"/>
	
		<ellipse transform="matrix(0.1243 -0.9922 0.9922 0.1243 -961.6541 981.1957)" class="st7" cx="75.1" cy="1035.4" rx="8.5" ry="34.8"/>
	
		<ellipse transform="matrix(0.9833 -0.1819 0.1819 0.9833 -185.5843 47.3299)" class="st7" cx="165.2" cy="1035.5" rx="34.8" ry="8.5"/>
	<path class="st3" d="M129,777.8L97.6,777l-7.6-26.4h-4.5l8.6,32.8c0,0-3.7,16.4-3.3,27.8s4.5,25.5,4.5,25.5s-10.4,14.8-15.4,26.4
		S40.8,1029,40.8,1029l89.4,0.4"/>
	<path class="st3" d="M111.3,777.8l31.4-0.8l7.6-26.4h4.5l-8.6,32.8c0,0,3.7,16.4,3.3,27.8s-4.5,25.5-4.5,25.5s10.4,14.8,15.4,26.4
		s39.1,165.9,39.1,165.9l-89.4,0.4"/>
	
		<ellipse transform="matrix(0.1819 -0.9833 0.9833 0.1819 -963.4441 908.8451)" class="st3" cx="64.5" cy="1033.4" rx="6.8" ry="24.1"/>
	
		<ellipse transform="matrix(0.1819 -0.9833 0.9833 0.1819 -939.7258 941.296)" class="st3" cx="95.8" cy="1035.4" rx="6.8" ry="24.1"/>
	
		<ellipse transform="matrix(0.9833 -0.1819 0.1819 0.9833 -185.0364 49.215)" class="st3" cx="175.8" cy="1033.4" rx="24.1" ry="6.8"/>
	
		<ellipse transform="matrix(0.9833 -0.1819 0.1819 0.9833 -185.8392 44.3973)" class="st3" cx="149.1" cy="1035.4" rx="24.1" ry="6.8"/>
	<ellipse class="st3" cx="123.1" cy="1035.4" rx="26" ry="11.1"/>
</g>
<g id="piano">
	<rect x="260.5" y="147.8" class="st8" width="203.2" height="111.9"/>
	<path class="st8" d="M260.6,155.3c0-54.5-6.3-114.3,65.4-114.3c79.9,0,61.4,52.8,72.6,59.4c10.5,6.2,43.3,2.8,55.6,11.9
		c10.3,7.6,9.5,28.7,9.5,43"/>
	<rect x="256.3" y="147.2" class="st2" width="203.2" height="111.9"/>
	<path class="st9" d="M266.8,243.2v-48.8c0-4.6,3.7-8.3,8.3-8.3h1.9c4.6,0,8.3,3.7,8.3,8.3v48.8c0,4.6-3.7,8.3-8.3,8.3h-1.9
		C270.5,251.5,266.8,247.8,266.8,243.2z"/>
	<path class="st9" d="M287.1,243.2v-48.8c0-4.6,3.7-8.3,8.3-8.3h1.9c4.6,0,8.3,3.7,8.3,8.3v48.8c0,4.6-3.7,8.3-8.3,8.3h-1.9
		C290.8,251.5,287.1,247.8,287.1,243.2z"/>
	<path class="st9" d="M307.4,243.2v-48.8c0-4.6,3.7-8.3,8.3-8.3h1.9c4.6,0,8.3,3.7,8.3,8.3v48.8c0,4.6-3.7,8.3-8.3,8.3h-1.9
		C311.2,251.5,307.4,247.8,307.4,243.2z"/>
	<path class="st9" d="M327.8,243.2v-48.8c0-4.6,3.7-8.3,8.3-8.3h1.9c4.6,0,8.3,3.7,8.3,8.3v48.8c0,4.6-3.7,8.3-8.3,8.3h-1.9
		C331.5,251.5,327.8,247.8,327.8,243.2z"/>
	<path class="st9" d="M348.1,243.2v-48.8c0-4.6,3.7-8.3,8.3-8.3h1.9c4.6,0,8.3,3.7,8.3,8.3v48.8c0,4.6-3.7,8.3-8.3,8.3h-1.9
		C351.8,251.5,348.1,247.8,348.1,243.2z"/>
	<path class="st9" d="M368.5,243.2v-48.8c0-4.6,3.7-8.3,8.3-8.3h1.9c4.6,0,8.3,3.7,8.3,8.3v48.8c0,4.6-3.7,8.3-8.3,8.3h-1.9
		C372.2,251.5,368.5,247.8,368.5,243.2z"/>
	<rect x="280.6" y="186.2" class="st2" width="9.2" height="47.1"/>
	<rect x="301.9" y="186.2" class="st2" width="9.2" height="47.1"/>
	<rect x="342.5" y="186.2" class="st2" width="9.2" height="47.1"/>
	<rect x="362.9" y="186.2" class="st2" width="9.2" height="47.1"/>
	<path class="st9" d="M388.8,243.2v-48.8c0-4.6,3.7-8.3,8.3-8.3h1.9c4.6,0,8.3,3.7,8.3,8.3v48.8c0,4.6-3.7,8.3-8.3,8.3h-1.9
		C392.5,251.5,388.8,247.8,388.8,243.2z"/>
	<rect x="383.2" y="186.2" class="st2" width="9.2" height="47.1"/>
	<path class="st9" d="M409.1,243.2v-48.8c0-4.6,3.7-8.3,8.3-8.3h1.9c4.6,0,8.3,3.7,8.3,8.3v48.8c0,4.6-3.7,8.3-8.3,8.3h-1.9
		C412.8,251.5,409.1,247.8,409.1,243.2z"/>
	<path class="st9" d="M429.5,243.2v-48.8c0-4.6,3.7-8.3,8.3-8.3h1.9c4.6,0,8.3,3.7,8.3,8.3v48.8c0,4.6-3.7,8.3-8.3,8.3h-1.9
		C433.2,251.5,429.5,247.8,429.5,243.2z"/>
	<rect x="423.9" y="186.2" class="st2" width="9.2" height="47.1"/>
	<path class="st2" d="M256.3,154.8c0-54.5-6.3-114.4,65.5-114.4c79.9,0,61.4,52.8,72.6,59.4c10.5,6.2,43.2,2.8,55.6,11.9
		c10.4,7.6,9.5,28.7,9.5,43.1"/>
	<rect x="256.3" y="176.9" class="st9" width="203.3" height="0.9"/>
	<polygon class="st8" points="256.3,259 260.5,259 260.5,259.6 	"/>
</g>
<g id="books">
	<path class="st3" d="M1215,202.6l117.8,26.2c0.4,0.1,0.9,0,1.2-0.3l92-63.8c2.3-1.6,1.8-5.7-0.7-6.3l-99.7-26.2l0,0l-111.1,62.7
		C1212.1,196.4,1212.6,202,1215,202.6z"/>
	<path class="st3" d="M1233.5,209.9c0,9.7-4,18.4-10.5,18.4s-13.2-8.7-13.2-18.4s5.3-17.5,11.8-17.5S1233.5,200.2,1233.5,209.9z"/>
	<path class="st3" d="M1222.4,228.6l93.6,24.6c0.4,0.1-0.4,0.3,0,0l108.9-62.2c2.3-1.6,2-7.1-0.2-8.8l-115.5-26.6
		c-0.4-0.1-0.9,0-1.2,0.3l-91.9,62.4C1213.7,220,1219.9,228.1,1222.4,228.6z"/>
	<path class="st0" d="M1217.8,201.5l-1.3,3.1c-0.7,1.7-1,3.5-1,5.3v0.2c0,1.7,0.3,3.4,0.9,5l1.4,3.8l98.8,24.9l-0.4-22.5
		L1217.8,201.5z"/>
	<path class="st0" d="M1317,221.2l0.3,22.5l109.1-60.4l-1.6-6.9c-0.5-2-1.1-2.4-0.5-7.5l0.9-3.7L1317,221.2z"/>
	<polygon class="st1" points="1317.3,243.8 1316.6,243.8 1316.1,221.2 1317,221.2 	"/>
	<path class="st2" d="M1218.5,159.4l99.6,37.6c0.5,0.1,0.9,0,1.3-0.4l109.6-91.4c2.7-2.2,3.8-8.2,1.7-9l-82.9-37.6l0,0l-127,89.7
		C1218.1,150.6,1216.4,158.6,1218.5,159.4z"/>
	<path class="st2" d="M1233.2,167.1c-3.7,13.9-11.5,25.1-17.6,25.1c0,0-8.1-11.2-4.4-25.1s11.5-25.1,17.6-25.1
		S1236.9,153.3,1233.2,167.1z"/>
	<path class="st2" d="M1215.6,192.2l90.4,34.4c0.4,0.1,0.3,0.2,0.6,0.1l115.9-84.6c2.7-2.2,4.5-10.1,3.1-12.6l-97.4-38.1
		c-0.5-0.1-0.9,0-1.3,0.4l-109,89.3C1215.2,183.4,1213.6,191.4,1215.6,192.2z"/>
	<path class="st0" d="M1223.1,158.4L1223.1,158.4c-1,0.2-1.9,0.7-2.5,1.6c-0.4,0.5-0.7,1-0.9,1.5c-0.8,1.8-1.5,3.7-2,5.6
		c0,0.1,0,0.2-0.1,0.3v0.1c-0.9,3.9-0.6,8,1,11.7l1.9,4.5l81.4,30.2l0.1-26.3l-77-29.1C1224.4,158.3,1223.7,158.3,1223.1,158.4z"/>
	<path class="st0" d="M1302.7,187.9l0.1,26.5l121-85.2l-0.7-7.2c0.3-2.9-0.8-5.7,1.7-13l0,0L1302.7,187.9z"/>
	<polygon class="st1" points="1302.8,214.4 1301.9,213.9 1302,187.6 1302.7,187.9 	"/>
	<path class="st1" d="M1213.4,117.1l117.8,26.2c0.4,0.1,0.9,0,1.2-0.3l92-63.8c2.3-1.6,1.8-5.7-0.7-6.3l-99.7-26.2l0,0l-111.1,62.7
		C1210.5,110.9,1210.9,116.5,1213.4,117.1z"/>
	<path class="st1" d="M1231.9,124.4c0,9.7-3.9,18.4-10.5,18.4s-13.2-8.7-13.2-18.4s5.3-17.5,11.8-17.5S1231.9,114.7,1231.9,124.4z"
		/>
	<path class="st1" d="M1220.7,143.1l93.6,24.6c0.4,0.1-0.4,0.3,0,0l108.9-62.2c2.3-1.6,2-7.1-0.2-8.8l-115.5-26.6
		c-0.4-0.1-0.9,0-1.2,0.3l-91.9,62.4C1212,134.4,1218.2,142.6,1220.7,143.1z"/>
	<path class="st0" d="M1216.1,116l-1.2,3.1c-0.7,1.7-1,3.5-1,5.3v0.2c0,1.7,0.3,3.4,0.9,5l1.4,3.8l98.8,24.9l-0.4-22.5L1216.1,116z"
		/>
	<path class="st0" d="M1315.3,135.7l0.3,22.5l109.1-60.4l-1.6-6.9c-0.5-2-1-2.4-0.5-7.5l0.9-3.7L1315.3,135.7z"/>
	<polygon class="st1" points="1315.7,158.2 1314.9,158.2 1314.5,135.7 1315.3,135.7 	"/>
</g>
<g id="tea_pots">
	<path class="st0" d="M1610.8,884.4c12.5,14.5,17.2,59.3,17.1,81.4c-0.2,44.1-25.5,59.9-63.8,59.7s-66.8-19.3-66.6-63.4
		c0.1-22,6.5-63.8,19.1-78.1"/>
	<path class="st0" d="M1498.7,945.5c1.5,1.6,2.5,0.8,2.8,3.3l4.4,46l0,0c-15.5-8.4-24.8-8.5-27.8-47.3l-0.7-7.8
		c-0.6-2.4-1.4-4.8-2.3-7.1c-1.2-3.2-2.8-6.2-5-8.8l-21.6-25.9c-0.6-0.7-0.2-2,0.6-2c4.6-0.2,15.3,0.4,16,0.4h9.4
		c1.6,0.4,3,1.3,4.2,2.5"/>
	<path class="st0" d="M1646.2,963.9c4.1-1.7,12.1-3.6,16.6-9.5c2.8-3.8,1-19.5,0.9-19.7c-1.6-19.5-8.9-15.3-20.4-10.5
		c-1.5,0.5-2.9,1.1-4.4,1.8l-18.7,9.3l-2.1-15.6l32.1-11.5c6.2-2.3,12.1-1.2,16.2,3.5c6.1,6.9,6.4,38.2,4.3,45.5
		c-1.7,6-3.2,7.8-7.6,11.1l-45.3,23.6l-3.4-17.5"/>
	<ellipse class="st2" cx="1563.3" cy="884.2" rx="47" ry="4.4"/>
	<path class="st0" d="M1611.3,866.7c0,9.2-21.4,11.4-47.8,11.4s-47.8-2.2-47.8-11.4s21.4-16.7,47.8-16.7S1611.3,857.5,1611.3,866.7z
		"/>
	<ellipse class="st0" cx="1566.3" cy="842.3" rx="6.3" ry="7.7"/>
</g>
<g id="clock">
	<ellipse class="st10" cx="845" cy="159.9" rx="80.8" ry="72.4"/>
	<ellipse class="st1" cx="835" cy="154.4" rx="80.8" ry="72.4"/>
	<ellipse class="st2" cx="794.1" cy="232.3" rx="15.4" ry="13.8"/>
	<ellipse class="st2" cx="876.6" cy="232.3" rx="15.4" ry="13.8"/>
	<ellipse class="st11" cx="835" cy="67.9" rx="15.7" ry="14"/>
	<ellipse class="st11" cx="835.3" cy="68.2" rx="15" ry="13.8"/>
	<ellipse class="st11" cx="835" cy="68.4" rx="14.7" ry="13.6"/>
	<ellipse class="st2" cx="835.5" cy="154.1" rx="2.2" ry="1.9"/>
	<rect x="834" y="82.8" class="st2" width="2.8" height="69.4"/>
	<rect x="837.8" y="152.8" class="st2" width="55.1" height="2.5"/>
	<ellipse class="st11" cx="835" cy="152.8" rx="61.6" ry="55.2"/>
</g>
<g id="chess_board">
	<polygon class="st0" points="563.3,966 544.9,966 563.3,955.6 581.6,955.6 	"/>
	<polygon class="st2" points="581.6,966 563.3,966 581.6,955.6 600,955.6 	"/>
	<polygon class="st0" points="600,966 581.6,966 600,955.6 618.4,955.6 	"/>
	<polygon class="st2" points="618.4,966 600,966 618.4,955.6 636.8,955.6 	"/>
	<polygon class="st0" points="636.8,966 618.4,966 636.8,955.6 655.1,955.6 	"/>
	<polygon class="st2" points="655.1,966 636.8,966 655.1,955.6 673.5,955.6 	"/>
	<polygon class="st0" points="526.5,997 508.1,997 526.5,986.7 544.9,986.7 	"/>
	<polygon class="st2" points="544.9,997 526.5,997 544.9,986.7 563.3,986.7 	"/>
	<polygon class="st0" points="563.3,997 544.9,997 563.3,986.7 581.6,986.7 	"/>
	<polygon class="st2" points="581.6,997 563.3,997 581.6,986.7 600,986.7 	"/>
	<polygon class="st0" points="600,997 581.6,997 600,986.7 618.4,986.7 	"/>
	<polygon class="st2" points="508.1,997 489.8,997 508.1,986.7 526.5,986.7 	"/>
	<polygon class="st0" points="526.5,986.7 508.1,986.7 526.5,976.3 544.9,976.3 	"/>
	<polygon class="st2" points="544.9,986.7 526.5,986.7 544.9,976.3 563.3,976.3 	"/>
	<polygon class="st0" points="563.3,986.7 544.9,986.7 563.3,976.3 581.6,976.3 	"/>
	<polygon class="st2" points="581.6,986.7 563.3,986.7 581.6,976.3 600,976.3 	"/>
	<polygon class="st0" points="600,986.7 581.6,986.7 600,976.3 618.4,976.3 	"/>
	<polygon class="st2" points="618.4,986.7 600,986.7 618.4,976.3 636.8,976.3 	"/>
	<polygon class="st0" points="600,945.3 581.6,945.3 600,934.9 618.4,934.9 	"/>
	<polygon class="st2" points="618.4,945.3 600,945.3 618.4,934.9 636.8,934.9 	"/>
	<polygon class="st0" points="636.8,945.3 618.4,945.3 636.8,934.9 655.1,934.9 	"/>
	<polygon class="st2" points="655.1,945.3 636.8,945.3 655.1,934.9 673.5,934.9 	"/>
	<polygon class="st0" points="673.5,945.3 655.1,945.3 673.5,934.9 691.9,934.9 	"/>
	<polygon class="st2" points="691.9,945.3 673.5,945.3 691.9,934.9 710.3,934.9 	"/>
	<polygon class="st0" points="600,955.6 581.6,955.6 600,945.3 618.4,945.3 	"/>
	<polygon class="st2" points="618.4,955.6 600,955.6 618.4,945.3 636.8,945.3 	"/>
	<polygon class="st0" points="636.8,955.6 618.4,955.6 636.8,945.3 655.1,945.3 	"/>
	<polygon class="st2" points="655.1,955.6 636.8,955.6 655.1,945.3 673.5,945.3 	"/>
	<polygon class="st0" points="673.5,955.6 655.1,955.6 673.5,945.3 691.9,945.3 	"/>
	<polygon class="st2" points="581.6,955.6 563.3,955.6 581.6,945.3 600,945.3 	"/>
	<polygon class="st0" points="563.3,976.3 544.9,976.3 563.3,966 581.6,966 	"/>
	<polygon class="st2" points="581.6,976.3 563.3,976.3 581.6,966 600,966 	"/>
	<polygon class="st0" points="600,976.3 581.6,976.3 600,966 618.4,966 	"/>
	<polygon class="st2" points="618.4,976.3 600,976.3 618.4,966 636.8,966 	"/>
	<polygon class="st0" points="636.8,976.3 618.4,976.3 636.8,966 655.1,966 	"/>
	<polygon class="st2" points="544.9,976.3 526.5,976.3 544.9,966 563.3,966 	"/>
	<rect x="489.7" y="997" class="st7" width="110.3" height="2.4"/>
	<polygon class="st7" points="710.3,934.9 600,997 600,999.4 710.3,937.2 	"/>
	<polyline class="st0" points="574.3,912.1 570.1,884.2 561.6,884.2 557.3,912.1 	"/>
	<polyline class="st0" points="590.8,922.4 578.9,912.1 555,912.1 543,922.4 	"/>
	<ellipse class="st0" cx="566.9" cy="926.2" rx="23.9" ry="1.3"/>
	<ellipse class="st0" cx="565.8" cy="871.4" rx="10.4" ry="10.8"/>
	<ellipse class="st0" cx="565.8" cy="883.2" rx="10.1" ry="1"/>
	<path class="st0" d="M590.8,922.4c0,2.3-10.7,2.1-23.9,2.1s-23.9,0.2-23.9-2.1"/>
	<polyline class="st2" points="620.5,937.3 616.2,909.4 607.7,909.4 603.4,937.3 	"/>
	<polyline class="st2" points="637,947.6 625,937.3 601.1,937.3 589.2,947.6 	"/>
	<ellipse class="st2" cx="613.1" cy="951.4" rx="23.9" ry="1.3"/>
	<ellipse class="st2" cx="612" cy="896.7" rx="10.4" ry="10.8"/>
	<ellipse class="st2" cx="612" cy="908.4" rx="10.1" ry="1"/>
	<path class="st2" d="M637,947.6c0,2.3-10.7,2.1-23.9,2.1s-23.9,0.2-23.9-2.1"/>
</g>
<g id="camera">
	<rect x="1703.9" y="112.8" class="st2" width="192.3" height="110.3"/>
	<rect x="1703.9" y="89.7" class="st4" width="192.3" height="23"/>
	<circle class="st0" cx="1820.9" cy="161.7" r="60.4"/>
	<circle class="st2" cx="1821.7" cy="161.7" r="41.5"/>
	<circle class="st0" cx="1822.5" cy="160.1" r="21.8"/>
	<circle class="st2" cx="1821.7" cy="161.7" r="11.2"/>
	<rect x="1709.3" y="83.6" class="st0" width="18.5" height="6.2"/>
	<rect x="1736.6" y="76.9" class="st0" width="18.5" height="12.9"/>
</g>
</svg>
