<svg id="Layer_1" data-name="Layer 1" xmlns="http://www.w3.org/2000/svg" viewBox="0 0 1365.79 289"><defs><style>.cls-1{fill:#fbe76b;}.cls-2{fill:#f26b6c;}.cls-3{fill:#1d565f;}.cls-4{fill:#5cc4be;}.cls-5{fill:#b54f51;}.cls-6{fill:#464748;}.cls-7{fill:#f8fbf7;}</style></defs><title>background2</title><polyline class="cls-1" points="512.17 0 512.17 288.43 341.45 288.43 341.45 0"/><polyline class="cls-2" points="170.72 0.57 341.45 0.57 341.45 289 170.72 289 170.72 0.57"/><rect class="cls-3" y="0.57" width="170.72" height="288.43"/><polyline class="cls-4" points="682.9 0.57 682.9 289 512.17 289 512.17 0.57 682.9 0.57"/><polyline class="cls-1" points="1195.07 0 1195.07 288.43 1024.35 288.43 1024.35 0"/><polyline class="cls-2" points="853.62 0.57 1024.35 0.57 1024.35 289 853.62 289 853.62 0.57"/><rect class="cls-3" x="682.9" y="0.28" width="170.72" height="288.43"/><rect class="cls-4" x="1195.07" y="0.57" width="170.72" height="288.43"/><g id="case"><polyline class="cls-2" points="834.2 137.31 814.71 169.5 720.31 169.5 701.11 137.31"/><polygon class="cls-1" points="831.36 130.11 703.67 130.11 700.89 137.31 834.2 137.31 831.36 130.11"/><polygon class="cls-3" points="814.71 171.06 720.31 171.06 720.31 169.5 814.71 169.5 814.71 171.06"/><polyline class="cls-1" points="701.61 213.37 720.31 171.06 814.71 171.06 835.62 213.37"/><polyline class="cls-2" points="705.8 211.37 723.44 171.06 812.58 171.06 831.28 211.37"/><polygon class="cls-3" points="835.62 214.36 701.46 214.36 701.61 213.37 835.62 213.37 835.62 214.36"/><polygon class="cls-5" points="700.89 137.31 708.01 137.31 727.64 169.5 720.31 169.5 700.89 137.31"/><polygon class="cls-5" points="834.2 137.31 827.09 137.31 807.46 169.5 814.71 169.5 834.2 137.31"/><polygon class="cls-5" points="715.62 211.37 705.8 211.37 723.44 171.06 727.64 171.06 727.64 188.51 715.62 211.37"/><polygon class="cls-5" points="820.26 211.37 831.28 211.37 812.5 171.06 807.46 171.06 807.46 188.51 820.26 211.37"/><rect class="cls-1" x="701.46" y="214.36" width="134.16" height="19.94"/><polygon class="cls-5" points="821.25 211.37 715.62 211.37 716.76 188.51 819.33 188.51 821.25 211.37"/><path class="cls-3" d="M756.94,698.21h3.2a.15.15,0,0,1,.14.14v.21a.16.16,0,0,1-.14.15h-3.2a.16.16,0,0,1-.14-.15v-.21A.15.15,0,0,1,756.94,698.21Z" transform="translate(-0.21 -479)"/><path class="cls-3" d="M756.94,698.21h.29a.15.15,0,0,1,.14.14v7.26a.16.16,0,0,1-.14.15h-.29a.16.16,0,0,1-.14-.15v-7.26A.15.15,0,0,1,756.94,698.21Z" transform="translate(-0.21 -479)"/><path class="cls-3" d="M778.28,698.21h.29a.15.15,0,0,1,.14.14V706a.15.15,0,0,1-.14.14h-.29a.15.15,0,0,1-.14-.14v-7.62C778.14,698.28,778.14,698.21,778.28,698.21Z" transform="translate(-0.21 -479)"/><path class="cls-3" d="M756.94,704.83h21.63a.15.15,0,0,1,.14.14v3.35a.15.15,0,0,1-.14.14H756.94a.15.15,0,0,1-.14-.14V705A.15.15,0,0,1,756.94,704.83Z" transform="translate(-0.21 -479)"/><path class="cls-3" d="M775.37,698.21h3.2a.15.15,0,0,1,.14.14v.21a.16.16,0,0,1-.14.15h-3.2a.16.16,0,0,1-.15-.15v-.21A.15.15,0,0,1,775.37,698.21Z" transform="translate(-0.21 -479)"/><polygon class="cls-3" points="834.2 137.31 700.89 137.31 701.18 136.38 833.77 136.38 834.2 137.31"/></g><g id="dress"><ellipse class="cls-6" cx="85.58" cy="261.15" rx="24.76" ry="6.05"/><ellipse class="cls-6" cx="53.56" cy="736.22" rx="6.05" ry="24.75" transform="translate(-683.81 218.73) rotate(-82.85)"/><ellipse class="cls-6" cx="117.73" cy="736.3" rx="24.76" ry="6.05" transform="translate(-132.34 -445.24) rotate(-10.49)"/><path class="cls-2" d="M92,552.78l-22.34-.57-5.4-18.8H61l6.11,23.36s-2.63,11.68-2.34,19.8S68,594.73,68,594.73s-7.4,10.54-11,18.8S29.23,731.68,29.23,731.68l63.59.28" transform="translate(-0.21 -479)"/><path class="cls-2" d="M79.38,552.78l22.34-.57,5.4-18.8h3.2l-6.11,23.36s2.63,11.68,2.34,19.8-3.2,18.16-3.2,18.16,7.4,10.54,11,18.8,27.81,118.15,27.81,118.15L78.53,732" transform="translate(-0.21 -479)"/><ellipse class="cls-2" cx="46.04" cy="734.81" rx="4.84" ry="17.14" transform="translate(-685.07 167.24) rotate(-79.51)"/><ellipse class="cls-2" cx="68.36" cy="736.26" rx="4.84" ry="17.14" transform="translate(-668.24 190.37) rotate(-79.51)"/><ellipse class="cls-2" cx="125.26" cy="734.8" rx="17.14" ry="4.84" transform="matrix(0.98, -0.18, 0.18, 0.98, -131.95, -443.89)"/><ellipse class="cls-2" cx="106.28" cy="736.23" rx="17.14" ry="4.84" transform="translate(-132.53 -447.33) rotate(-10.49)"/><ellipse class="cls-2" cx="87.57" cy="257.24" rx="18.5" ry="7.91"/></g><g id="tea_pots" data-name="tea pots"><path class="cls-7" d="M1146.05,628.7c8.89,10.33,12.24,42.23,12.16,58-.14,31.41-18.14,42.66-45.38,42.52s-47.52-13.75-47.38-45.16c.08-15.66,4.63-45.43,13.59-55.62" transform="translate(-0.21 -479)"/><path class="cls-7" d="M1066.31,672.21c1.06,1.14,1.78.57,2,2.35l3.13,32.76h0c-11-6-17.64-6.05-19.78-33.68l-.49-5.56a41.91,41.91,0,0,0-1.64-5.05,20.83,20.83,0,0,0-3.56-6.27l-15.36-18.45c-.43-.5-.14-1.42.42-1.42,3.28-.14,10.89.28,11.39.28h6.68a6.53,6.53,0,0,1,3,1.78" transform="translate(-0.21 -479)"/><path class="cls-7" d="M1171.23,685.32c2.92-1.21,8.61-2.57,11.81-6.77,2-2.71.71-13.89.64-14-1.14-13.89-6.33-10.9-14.51-7.48a29.53,29.53,0,0,0-3.13,1.29l-13.3,6.62-1.5-11.11,22.84-8.19c4.41-1.64,8.6-.86,11.52,2.49,4.34,4.92,4.55,27.21,3.06,32.41-1.21,4.27-2.28,5.55-5.41,7.9L1151,705.26l-2.42-12.47" transform="translate(-0.21 -479)"/><ellipse class="cls-3" cx="1112.06" cy="149.56" rx="33.43" ry="3.13"/><path class="cls-7" d="M1146.41,616.09c0,6.56-15.23,8.12-34,8.12s-34-1.56-34-8.12,15.22-11.89,34-11.89S1146.41,609.54,1146.41,616.09Z" transform="translate(-0.21 -479)"/><ellipse class="cls-7" cx="1114.19" cy="119.72" rx="4.48" ry="5.48"/></g><g id="chess_board" data-name="chess board"><polygon class="cls-7" points="400.7 207.81 387.62 207.81 400.7 200.41 413.72 200.41 400.7 207.81"/><polygon class="cls-3" points="413.72 207.81 400.7 207.81 413.72 200.41 426.81 200.41 413.72 207.81"/><polygon class="cls-7" points="426.81 207.81 413.72 207.81 426.81 200.41 439.9 200.41 426.81 207.81"/><polygon class="cls-3" points="439.9 207.81 426.81 207.81 439.9 200.41 452.99 200.41 439.9 207.81"/><polygon class="cls-7" points="452.99 207.81 439.9 207.81 452.99 200.41 466.01 200.41 452.99 207.81"/><polygon class="cls-3" points="466.01 207.81 452.99 207.81 466.01 200.41 479.1 200.41 466.01 207.81"/><polygon class="cls-7" points="374.53 229.89 361.44 229.89 374.53 222.55 387.62 222.55 374.53 229.89"/><polygon class="cls-3" points="387.62 229.89 374.53 229.89 387.62 222.55 400.7 222.55 387.62 229.89"/><polygon class="cls-7" points="400.7 229.89 387.62 229.89 400.7 222.55 413.72 222.55 400.7 229.89"/><polygon class="cls-3" points="413.72 229.89 400.7 229.89 413.72 222.55 426.81 222.55 413.72 229.89"/><polygon class="cls-7" points="426.81 229.89 413.72 229.89 426.81 222.55 439.9 222.55 426.81 229.89"/><polygon class="cls-3" points="361.44 229.89 348.42 229.89 361.44 222.55 374.53 222.55 361.44 229.89"/><polygon class="cls-7" points="374.53 222.55 361.44 222.55 374.53 215.15 387.62 215.15 374.53 222.55"/><polygon class="cls-3" points="387.62 222.55 374.53 222.55 387.62 215.15 400.7 215.15 387.62 222.55"/><polygon class="cls-7" points="400.7 222.55 387.62 222.55 400.7 215.15 413.72 215.15 400.7 222.55"/><polygon class="cls-3" points="413.72 222.55 400.7 222.55 413.72 215.15 426.81 215.15 413.72 222.55"/><polygon class="cls-7" points="426.81 222.55 413.72 222.55 426.81 215.15 439.9 215.15 426.81 222.55"/><polygon class="cls-3" points="439.9 222.55 426.81 222.55 439.9 215.15 452.99 215.15 439.9 222.55"/><polygon class="cls-7" points="426.81 193.07 413.72 193.07 426.81 185.66 439.9 185.66 426.81 193.07"/><polygon class="cls-3" points="439.9 193.07 426.81 193.07 439.9 185.66 452.99 185.66 439.9 193.07"/><polygon class="cls-7" points="452.99 193.07 439.9 193.07 452.99 185.66 466.01 185.66 452.99 193.07"/><polygon class="cls-3" points="466.01 193.07 452.99 193.07 466.01 185.66 479.1 185.66 466.01 193.07"/><polygon class="cls-7" points="479.1 193.07 466.01 193.07 479.1 185.66 492.18 185.66 479.1 193.07"/><polygon class="cls-3" points="492.18 193.07 479.1 193.07 492.18 185.66 505.27 185.66 492.18 193.07"/><polygon class="cls-7" points="426.81 200.41 413.72 200.41 426.81 193.07 439.9 193.07 426.81 200.41"/><polygon class="cls-3" points="439.9 200.41 426.81 200.41 439.9 193.07 452.99 193.07 439.9 200.41"/><polygon class="cls-7" points="452.99 200.41 439.9 200.41 452.99 193.07 466.01 193.07 452.99 200.41"/><polygon class="cls-3" points="466.01 200.41 452.99 200.41 466.01 193.07 479.1 193.07 466.01 200.41"/><polygon class="cls-7" points="479.1 200.41 466.01 200.41 479.1 193.07 492.18 193.07 479.1 200.41"/><polygon class="cls-3" points="413.72 200.41 400.7 200.41 413.72 193.07 426.81 193.07 413.72 200.41"/><polygon class="cls-7" points="400.7 215.15 387.62 215.15 400.7 207.81 413.72 207.81 400.7 215.15"/><polygon class="cls-3" points="413.72 215.15 400.7 215.15 413.72 207.81 426.81 207.81 413.72 215.15"/><polygon class="cls-7" points="426.81 215.15 413.72 215.15 426.81 207.81 439.9 207.81 426.81 215.15"/><polygon class="cls-3" points="439.9 215.15 426.81 215.15 439.9 207.81 452.99 207.81 439.9 215.15"/><polygon class="cls-7" points="452.99 215.15 439.9 215.15 452.99 207.81 466.01 207.81 452.99 215.15"/><polygon class="cls-3" points="387.62 215.15 374.53 215.15 387.62 207.81 400.7 207.81 387.62 215.15"/><rect class="cls-6" x="348.35" y="229.89" width="78.46" height="1.71"/><polygon class="cls-6" points="505.27 185.66 426.81 229.89 426.81 231.6 505.27 187.3 505.27 185.66"/><polyline class="cls-7" points="408.53 169.43 405.54 149.56 399.5 149.56 396.44 169.43"/><polyline class="cls-7" points="420.27 176.76 411.8 169.43 394.8 169.43 386.26 176.76"/><ellipse class="cls-7" cx="403.26" cy="179.47" rx="17" ry="0.93"/><ellipse class="cls-7" cx="402.48" cy="140.44" rx="7.4" ry="7.69"/><ellipse class="cls-7" cx="402.48" cy="148.84" rx="7.18" ry="0.71"/><path class="cls-7" d="M420.47,655.76c0,1.64-7.61,1.5-17,1.5s-17,.14-17-1.5" transform="translate(-0.21 -479)"/><polyline class="cls-3" points="441.39 187.37 438.33 167.5 432.29 167.5 429.23 187.37"/><polyline class="cls-3" points="453.13 194.71 444.59 187.37 427.59 187.37 419.13 194.71"/><ellipse class="cls-3" cx="436.13" cy="197.41" rx="17" ry="0.93"/><ellipse class="cls-3" cx="435.35" cy="158.46" rx="7.4" ry="7.69"/><ellipse class="cls-3" cx="435.35" cy="166.79" rx="7.18" ry="0.71"/><path class="cls-3" d="M453.34,673.71c0,1.64-7.61,1.49-17,1.49s-17,.15-17-1.49" transform="translate(-0.21 -479)"/></g></svg>